<mxfile host="app.diagrams.net" agent="Mozilla/5.0 (Windows NT 10.0; Win64; x64) AppleWebKit/537.36 (KHTML, like Gecko) Chrome/136.0.0.0 Safari/537.36" version="27.0.6">
  <diagram name="Page-1" id="58cdce13-f638-feb5-8d6f-7d28b1aa9fa0">
    <mxGraphModel dx="1708" dy="811" grid="1" gridSize="10" guides="1" tooltips="1" connect="1" arrows="1" fold="1" page="1" pageScale="1" pageWidth="1100" pageHeight="850" background="none" math="0" shadow="0">
      <root>
        <mxCell id="0" />
        <mxCell id="1" parent="0" />
        <mxCell id="An-29RJoXPK4Af2DD4BZ-7" style="edgeStyle=orthogonalEdgeStyle;rounded=0;orthogonalLoop=1;jettySize=auto;html=1;exitX=0.5;exitY=0;exitDx=0;exitDy=0;entryX=0;entryY=0.5;entryDx=0;entryDy=0;" edge="1" parent="1" source="382b91b5511bd0f7-1">
          <mxGeometry relative="1" as="geometry">
            <mxPoint x="350" y="230" as="targetPoint" />
          </mxGeometry>
        </mxCell>
        <mxCell id="382b91b5511bd0f7-1" value="" style="ellipse;html=1;shape=startState;fillColor=#000000;strokeColor=#ff0000;rounded=1;shadow=0;comic=0;labelBackgroundColor=none;fontFamily=Verdana;fontSize=12;fontColor=#000000;align=center;direction=south;" parent="1" vertex="1">
          <mxGeometry x="120" y="215" width="30" height="30" as="geometry" />
        </mxCell>
        <mxCell id="An-29RJoXPK4Af2DD4BZ-9" style="edgeStyle=orthogonalEdgeStyle;rounded=0;orthogonalLoop=1;jettySize=auto;html=1;exitX=1;exitY=0;exitDx=0;exitDy=0;entryX=0;entryY=0.5;entryDx=0;entryDy=0;" edge="1" parent="1" source="An-29RJoXPK4Af2DD4BZ-16">
          <mxGeometry relative="1" as="geometry">
            <mxPoint x="470" y="230" as="sourcePoint" />
            <mxPoint x="650" y="230" as="targetPoint" />
            <Array as="points">
              <mxPoint x="440" y="230" />
              <mxPoint x="440" y="230" />
            </Array>
          </mxGeometry>
        </mxCell>
        <mxCell id="An-29RJoXPK4Af2DD4BZ-11" style="edgeStyle=orthogonalEdgeStyle;rounded=0;orthogonalLoop=1;jettySize=auto;html=1;exitX=0.5;exitY=0;exitDx=0;exitDy=0;entryX=0.25;entryY=0;entryDx=0;entryDy=0;" edge="1" parent="1">
          <mxGeometry relative="1" as="geometry">
            <mxPoint x="737.51" y="200" as="sourcePoint" />
            <mxPoint x="710.01" y="200" as="targetPoint" />
            <Array as="points">
              <mxPoint x="750" y="200" />
              <mxPoint x="750" y="180" />
              <mxPoint x="710" y="180" />
            </Array>
          </mxGeometry>
        </mxCell>
        <mxCell id="An-29RJoXPK4Af2DD4BZ-13" style="edgeStyle=orthogonalEdgeStyle;rounded=0;orthogonalLoop=1;jettySize=auto;html=1;exitX=0.25;exitY=1;exitDx=0;exitDy=0;entryX=0.518;entryY=1.009;entryDx=0;entryDy=0;entryPerimeter=0;" edge="1" parent="1" source="An-29RJoXPK4Af2DD4BZ-34" target="An-29RJoXPK4Af2DD4BZ-16">
          <mxGeometry relative="1" as="geometry">
            <mxPoint x="712.5" y="270" as="sourcePoint" />
            <mxPoint x="287.5000000000001" y="270" as="targetPoint" />
            <Array as="points">
              <mxPoint x="690" y="280" />
              <mxPoint x="288" y="280" />
            </Array>
          </mxGeometry>
        </mxCell>
        <mxCell id="An-29RJoXPK4Af2DD4BZ-21" style="edgeStyle=orthogonalEdgeStyle;rounded=0;orthogonalLoop=1;jettySize=auto;html=1;exitX=1;exitY=0.5;exitDx=0;exitDy=0;entryX=0;entryY=0.5;entryDx=0;entryDy=0;" edge="1" parent="1" target="An-29RJoXPK4Af2DD4BZ-20">
          <mxGeometry relative="1" as="geometry">
            <mxPoint x="770" y="230" as="sourcePoint" />
          </mxGeometry>
        </mxCell>
        <mxCell id="An-29RJoXPK4Af2DD4BZ-29" style="edgeStyle=orthogonalEdgeStyle;rounded=0;orthogonalLoop=1;jettySize=auto;html=1;exitX=0.75;exitY=1;exitDx=0;exitDy=0;entryX=1;entryY=0.5;entryDx=0;entryDy=0;" edge="1" parent="1" target="An-29RJoXPK4Af2DD4BZ-28">
          <mxGeometry relative="1" as="geometry">
            <mxPoint x="750.01" y="260" as="sourcePoint" />
            <Array as="points">
              <mxPoint x="750" y="395" />
            </Array>
          </mxGeometry>
        </mxCell>
        <mxCell id="An-29RJoXPK4Af2DD4BZ-10" value="&lt;font style=&quot;font-size: 12px;&quot;&gt;moedas inseridas / moedas := n&lt;/font&gt;" style="text;html=1;align=center;verticalAlign=middle;resizable=0;points=[];autosize=1;strokeColor=none;fillColor=none;" vertex="1" parent="1">
          <mxGeometry x="400" y="200" width="190" height="30" as="geometry" />
        </mxCell>
        <mxCell id="An-29RJoXPK4Af2DD4BZ-12" value="&lt;font style=&quot;font-size: 12px;&quot;&gt;bebida confirmada e bebida indisponível /&amp;nbsp;&lt;/font&gt;exibirMensagemDeErro()" style="text;html=1;align=center;verticalAlign=middle;resizable=0;points=[];autosize=1;strokeColor=none;fillColor=none;" vertex="1" parent="1">
          <mxGeometry x="540" y="150" width="380" height="30" as="geometry" />
        </mxCell>
        <mxCell id="An-29RJoXPK4Af2DD4BZ-14" value="&lt;font style=&quot;font-size: 12px;&quot;&gt;bebida confirmada e moedas insuficientes / exibirMensagemDeErro() ,&amp;nbsp;&lt;/font&gt;moedas := n" style="text;html=1;align=center;verticalAlign=middle;resizable=0;points=[];autosize=1;strokeColor=none;fillColor=none;" vertex="1" parent="1">
          <mxGeometry x="270.01" y="280" width="470" height="30" as="geometry" />
        </mxCell>
        <mxCell id="An-29RJoXPK4Af2DD4BZ-15" value="Idle" style="swimlane;fontStyle=0;align=center;verticalAlign=middle;childLayout=stackLayout;horizontal=1;startSize=30;horizontalStack=0;resizeParent=0;resizeLast=1;container=0;fontColor=#000000;collapsible=0;rounded=1;arcSize=30;strokeColor=#ff0000;fillColor=#ffffc0;swimlaneFillColor=#ffffc0;dropTarget=0;" vertex="1" parent="1">
          <mxGeometry x="205" y="200" width="160" height="60" as="geometry" />
        </mxCell>
        <mxCell id="An-29RJoXPK4Af2DD4BZ-16" value="moedas : inteiro" style="text;html=1;strokeColor=none;fillColor=none;align=center;verticalAlign=middle;spacingLeft=4;spacingRight=4;whiteSpace=wrap;overflow=hidden;rotatable=0;fontColor=#000000;" vertex="1" parent="An-29RJoXPK4Af2DD4BZ-15">
          <mxGeometry y="30" width="160" height="30" as="geometry" />
        </mxCell>
        <mxCell id="An-29RJoXPK4Af2DD4BZ-23" style="edgeStyle=orthogonalEdgeStyle;rounded=0;orthogonalLoop=1;jettySize=auto;html=1;exitX=0.5;exitY=0;exitDx=0;exitDy=0;" edge="1" parent="1" source="An-29RJoXPK4Af2DD4BZ-20">
          <mxGeometry relative="1" as="geometry">
            <mxPoint x="240" y="200" as="targetPoint" />
            <Array as="points">
              <mxPoint x="980" y="140" />
              <mxPoint x="240" y="140" />
            </Array>
          </mxGeometry>
        </mxCell>
        <mxCell id="An-29RJoXPK4Af2DD4BZ-20" value="Entregando bebida" style="rounded=1;whiteSpace=wrap;html=1;arcSize=24;fillColor=#ffffc0;strokeColor=#ff0000;shadow=0;comic=0;labelBackgroundColor=none;fontFamily=Verdana;fontSize=12;fontColor=#000000;align=center;" vertex="1" parent="1">
          <mxGeometry x="920" y="200" width="120" height="60" as="geometry" />
        </mxCell>
        <mxCell id="An-29RJoXPK4Af2DD4BZ-22" value="&lt;font style=&quot;font-size: 12px;&quot;&gt;bebida confirmada OK&lt;/font&gt;" style="text;html=1;align=center;verticalAlign=middle;resizable=0;points=[];autosize=1;strokeColor=none;fillColor=none;" vertex="1" parent="1">
          <mxGeometry x="785" y="200" width="140" height="30" as="geometry" />
        </mxCell>
        <mxCell id="An-29RJoXPK4Af2DD4BZ-24" value="bebida entregue / moedas := 0" style="text;html=1;align=center;verticalAlign=middle;resizable=0;points=[];autosize=1;strokeColor=none;fillColor=none;" vertex="1" parent="1">
          <mxGeometry x="510" y="110" width="190" height="30" as="geometry" />
        </mxCell>
        <mxCell id="An-29RJoXPK4Af2DD4BZ-26" value="&lt;font style=&quot;font-size: 12px;&quot;&gt;cancelar operação&lt;/font&gt;" style="text;html=1;align=center;verticalAlign=middle;resizable=0;points=[];autosize=1;strokeColor=none;fillColor=none;" vertex="1" parent="1">
          <mxGeometry x="600.01" y="365" width="120" height="30" as="geometry" />
        </mxCell>
        <mxCell id="An-29RJoXPK4Af2DD4BZ-30" style="edgeStyle=orthogonalEdgeStyle;rounded=0;orthogonalLoop=1;jettySize=auto;html=1;exitX=0;exitY=0.5;exitDx=0;exitDy=0;" edge="1" parent="1" source="An-29RJoXPK4Af2DD4BZ-28">
          <mxGeometry relative="1" as="geometry">
            <mxPoint x="250.01" y="260" as="targetPoint" />
            <Array as="points">
              <mxPoint x="250.01" y="395" />
              <mxPoint x="250.01" y="260" />
            </Array>
          </mxGeometry>
        </mxCell>
        <mxCell id="An-29RJoXPK4Af2DD4BZ-28" value="Devolvendo moedas" style="rounded=1;whiteSpace=wrap;html=1;arcSize=24;fillColor=#ffffc0;strokeColor=#ff0000;shadow=0;comic=0;labelBackgroundColor=none;fontFamily=Verdana;fontSize=12;fontColor=#000000;align=center;" vertex="1" parent="1">
          <mxGeometry x="445.01" y="365" width="120" height="60" as="geometry" />
        </mxCell>
        <mxCell id="An-29RJoXPK4Af2DD4BZ-31" value="&lt;font style=&quot;font-size: 9px;&quot;&gt;todas as moedas devolvidas / moedas := 0&lt;/font&gt;" style="text;html=1;align=center;verticalAlign=middle;resizable=0;points=[];autosize=1;strokeColor=none;fillColor=none;" vertex="1" parent="1">
          <mxGeometry x="255.01" y="365" width="190" height="30" as="geometry" />
        </mxCell>
        <mxCell id="An-29RJoXPK4Af2DD4BZ-33" value="Selecionando bebida" style="swimlane;fontStyle=0;align=center;verticalAlign=middle;childLayout=stackLayout;horizontal=1;startSize=30;horizontalStack=0;resizeParent=0;resizeLast=1;container=0;fontColor=#000000;collapsible=0;rounded=1;arcSize=30;strokeColor=#ff0000;fillColor=#ffffc0;swimlaneFillColor=#ffffc0;dropTarget=0;" vertex="1" parent="1">
          <mxGeometry x="650" y="200" width="140" height="60" as="geometry" />
        </mxCell>
        <mxCell id="An-29RJoXPK4Af2DD4BZ-34" value="moedas : inteiro" style="text;html=1;strokeColor=none;fillColor=none;align=center;verticalAlign=middle;spacingLeft=4;spacingRight=4;whiteSpace=wrap;overflow=hidden;rotatable=0;fontColor=#000000;" vertex="1" parent="An-29RJoXPK4Af2DD4BZ-33">
          <mxGeometry y="30" width="140" height="30" as="geometry" />
        </mxCell>
      </root>
    </mxGraphModel>
  </diagram>
</mxfile>
